# xmcd CD database file
#
# Track frame offsets:
#	150
#	20957
#	39875
#	46557
#	67230
#	85980
#	101075
#	117947
#	131302
#	143282
#	158517
#	172612
#	187940
#	214685
#	228690
#	242567
#	270432
#
# Disc length: 4509 seconds
#
# Revision: 0
# Processed by: cddbd v1.5.2PL0 Copyright (c) Steve Scherf et al.
# Submitted via: CDex 1.70beta2
#
DISCID=d3119b11
DTITLE=The Gipsy Kings - Roots
DYEAR=2004
DGENRE=Jazz
TTITLE0=Aven, Aven
TTITLE1=Legende
TTITLE2=Fandango (Patchai)
TTITLE3=Bolerias
TTITLE4=Rhythmic
TTITLE5=Como Siento Yo
TTITLE6=Amigo
TTITLE7=Tarantas
TTITLE8=Fandango (Nicolas)
TTITLE9=Boogie
TTITLE10=Nuages
TTITLE11=Como Ayer
TTITLE12=Soledad
TTITLE13=Tampa
TTITLE14=Hermanos
TTITLE15=Petite Noya
TTITLE16=bonus
EXTD=YEAR: 2004
EXTT0=
EXTT1=
EXTT2=
EXTT3=
EXTT4=
EXTT5=
EXTT6=
EXTT7=
EXTT8=
EXTT9=
EXTT10=
EXTT11=
EXTT12=
EXTT13=
EXTT14=
EXTT15=
EXTT16=
PLAYORDER=
